<svg width="20" height="20" xmlns="http://www.w3.org/2000/svg"><g fill="none" fill-rule="evenodd"><path d="M15.625 20H4.375C1.95875 20 0 18.04125 0 15.625V4.375C0 1.95875 1.95875 0 4.375 0h11.25C18.04125 0 20 1.95875 20 4.375v11.25C20 18.04125 18.04125 20 15.625 20z" fill="#41479B"/><g fill="#F5F5F5"><path d="M20 15.6245703v-.9604297l-3.1023047-2.032539H20v-1.0526563h-8.4210547V20h1.0526172v-6.3882813l6.6770313 4.3746094c.2364843-.368164.4190625-.7742187.5371093-1.206875M.2941797 17.2048047c.1065625.275.2399219.5366406.3971875.7815234l6.6770312-4.3746094V20h1.0526172v-8.4210547H0v1.0526563h3.1023047L0 14.6641406V15.625c0 .1682031.0098438.3341016.0283203.4973828M0 4.523711v.8121484l3.1023047 2.0325781H0v1.0526172h8.4210547V0H7.3684375v6.3882813L.6913672 2.0136719c-.2594922.4040234-.4541406.8535937-.5697266 1.3339844M19.7000391 2.780039c-.1055469-.2694921-.2370313-.5260156-.3914453-.7664062l-6.6770313 4.3746485V0h-1.0526172v8.4210547H20V7.3684375h-3.1023047L20 5.3358594V4.375c0-.1742187-.0105078-.3460156-.0303125-.5149219"/></g><g fill="#FF4B55"><path d="M11.5789453 0H8.4210547v8.4210547H0v3.1578906h8.4210547V20h3.1578906v-8.4210547H20V8.4210547h-8.4210547z"/><path d="M5.4060547 12.6316016L.0283203 16.1223828c.0427344.3774609.1333594.7403516.2658984 1.0824219l7.0452735-4.5732422H5.4060547v.0000391zM13.4556641 12.6315625l6.3900781 4.1479297C19.9460937 16.4116406 20 16.0246484 20 15.625v-.0004297l-4.6108984-2.9930078h-1.9334375zM6.3157812 7.3684375L.1216406 3.3476563C.0423046 3.6771874 0 4.0211327 0 4.375v.148711l4.3823438 2.8447265h1.9334374zM14.5649609 7.3684375l5.4046875-3.5083594c-.0441796-.3767187-.1359765-.7388281-.2696093-1.08l-7.0684766 4.5883594h1.9333984z"/></g></g></svg>