<svg width="112" height="87" xmlns="http://www.w3.org/2000/svg"><g fill="none" fill-rule="evenodd"><path d="M55.9412319 12.7657718c30.8114981 0 55.9399541 11.8349564 55.9399541 26.3453738 0 14.5108398-25.1288818 26.3449515-55.9399541 26.3449515C25.1288821 65.4560971 0 53.6215631 0 39.1107233c0-14.5099951 25.1288821-26.3449515 55.9412319-26.3449515z" fill="#FFF"/><path fill="#000" d="M93.3922433 79.0813107v-.4594952h-73.875711v.4594952zM93.3922433 68.7017039v-.4586505h-73.875711v.4586505z"/><path fill="#18488B" d="M31.2986768 76.9958447h-1.9857643l-1.1889886-3.5813593-2.3247452 3.6730049h-.7265096l-2.3409277-3.6730049-1.2460532 3.5813593h-1.9691559l2.3247452-6.6533884h1.078692l2.5074373 4.485568 2.4354677-4.485568h1.078692zM44.5615209 71.3826553h-5.0238175v5.6131894h-2.0292016v-6.654233h7.0530191zM59.8007604 76.9958447h-2.0138707V72.518301l-5.930038 4.5814369h-.8529886v-6.7581262h2.0134448v4.4775436l5.9300381-4.5814369h.8534144zM77.7062813 76.9958447h-1.9499924l-1.1685475-3.5822039-2.2830114 3.6738495h-.713308l-2.2987681-3.6738495-1.2239087 3.5822039h-1.9338099l2.2825856-6.654233h1.0595285l2.4635741 4.4864126 2.3911787-4.4864126h1.0595285z"/><path d="M83.4825855 73.6087573c0-.9443301.4437414-1.7471796 1.3290951-2.4026359.8853536-.657568 2.0713612-.9865631 3.5571711-.9865631 1.6144182 0 2.8562129.294364 3.7232547.8843592.866616.5895728 1.3001369 1.4236747 1.3001369 2.5052621 0 1.086233-.4518327 1.9393398-1.3533688 2.5643884-.9036654.6237815-2.1825095.9354611-3.8339772.9354611-1.5377643 0-2.7084411-.3133689-3.5145856-.9426408-.8035893-.6288495-1.2077262-1.4811116-1.2077262-2.557631zm2.0900989 0c0 .8100291.2274068 1.4194514.6817946 1.8303786.4543879.4100825 1.1050951.6161796 1.9504183.6161796 1.0062966 0 1.7758175-.2060971 2.3043042-.6187136.5284867-.4126165.7925171-1.0211941.7925171-1.8278446 0-1.5588204-.9777643-2.3392864-2.9332928-2.3392864-.9092015 0-1.6016426.2094757-2.0798783.6309611-.4752548.4210631-.7158631.9899418-.7158631 1.7083253zM29.2341292 82.0688738c-.2555133.9088544-.5757566 1.7454903-.9620076 2.5082184-.3858251.7631505-.7571711 1.2851505-1.1127604 1.5681117-.3555894.2812718-.8248822.4231747-1.4070267.4231747v-.7276747c.0242738.0042233.0728213.0059126.1443651.0059126.2640304 0 .4807908-.046034.6532623-.1402136.1707681-.0933349.3227985-.2343932.4565171-.4223301l-1.6220836-3.215199h.8934449l1.1894144 2.5935291c.3658099-.7340097.677962-1.5985194.9356046-2.5935291h.8312699zm4.9177795 4.4564272v-2.0069127h-1.8013688v2.0069127h-.8035894v-4.4568495h.8035894v1.7446456h1.8013688v-1.7446456h.7908137v4.4568495h-.7908137zm7.0457795 0h-.8035894v-2.9985437l-2.3664791 3.0678058h-.3406844v-4.5261116h.8035894v2.9993883l2.366479-3.0686505h.3406845v4.5261117zm4.129095 0h-1.3844563v-4.4568495c.7107529-.0295632 1.1387377-.0451894 1.282251-.0451894.4684411 0 .8351027.0996699 1.1021141.2977428.2670114.1989174.3998783.4827233.3998783.8488834 0 .358136-.1907833.6377185-.5714981.837903.5621293.1913155.8436198.5895728.8436198 1.1968835 0 .4050145-.156289.7276747-.4663118.9641796-.3113004.2386165-.713308.3564466-1.205597.3564466zm-.5812928-3.8203981v1.0655388c.1613993.007602.2921369.011403.392213.011403.5233764 0 .7848517-.1930049.7848517-.5807039 0-.3446214-.2384791-.5173544-.716289-.5173544-.1230722.0004223-.2772319.0076019-.4607757.0211165zm0 1.6834078v1.476466c.162251.0122476.2951179.0181602.3990267.0181602.3351482 0 .589384-.0553252.7605779-.168932.1707681-.1123399.256365-.315903.256365-.6094224 0-.2500194-.073673-.4328883-.2205931-.5502961-.1477719-.1161408-.4113765-.174-.789962-.174-.1447909-.0004223-.2797871.001267-.4054145.0080243zm5.5906312-1.6217476v1.0469563h1.4990114v.6723495h-1.4990114v1.3362525h2.0492167v.7036019h-2.852806v-4.4568495h2.8898555v.6976893h-2.0862662zm5.4577643 2.1184078v1.6407524h-.8035894v-4.4568495c.5915133-.0232282.9057947-.0329418.9428441-.0329418.7043651 0 1.2243346.1064272 1.5586312.3218156.3342966.2153883.5020837.5528301.5020837 1.0144369 0 1.0220388-.6119544 1.5334805-1.8350114 1.5334805-.0932624 0-.2142054-.0059126-.3649582-.0206941zm0-2.1315v1.427898c.1379772.0122476.2457186.0190049.3219467.0190049.3666616 0 .6336731-.0595486.8035894-.179068.1686388-.1178301.253384-.3150582.253384-.5891505 0-.4603398-.3790114-.6913543-1.1340532-.6913543-.1145551.0004223-.1954677.0042233-.2448669.0126699zm7.8336121-.4480923l-.3283346.655034c-.1805627-.1799126-.468441-.2707136-.8615057-.2707136-.3956197 0-.7094752.1617525-.9428441.483568-.2320912.3235048-.3487756.7128932-.3487756 1.1690097 0 .4578058.1085931.8307233.3249277 1.1191748.2163346.2884514.5178403.4345776.904943.4345776.4271331 0 .7593004-.1499272.9986312-.4480922l.3798631.6419417c-.3287605.3408204-.8108289.5114418-1.4427985.5114418-.6370798 0-1.1285171-.2060971-1.4777186-.6161796-.347924-.4117719-.5220989-.9684029-.5220989-1.6728495 0-.6533447.1929126-1.2044855.5766084-1.653.3836958-.4480923.8836502-.6731942 1.4994372-.6731942.5118784 0 .9245324.1064272 1.2396654.3192815zm6.0948442 4.2199224h-.8035894v-2.9985437l-2.3669049 3.0678058h-.3411103v-4.5261116h.8040152v2.9993883l2.3669049-3.0686505h.3406845v4.5261117zm4.7035741-3.7587379v3.7587379h-.8040152v-3.7587379h-1.4364107v-.6976893h3.7488061v.6976893h-1.5083802zm4.7674525 0v1.0469563h1.4990114v.6723495h-1.4990114v1.3362525h2.0496426v.7036019h-2.8528061v-4.4568495h2.8898555v.6976893h-2.086692zm6.6135361 0v3.7587379h-.8035894v-3.7587379h-1.4364106v-.6976893h3.7483802v.6976893h-1.5083802z" fill="#18488B" fill-rule="nonzero"/><path stroke="#FFF" stroke-width=".5" stroke-linecap="square" d="M50.1363954 63.8292816h-6.1220989V32.879665L21.3421749 14.1864903h6.1225247L50.1363954 32.109335v31.7199466z"/><path stroke="#FFF" stroke-width=".5" stroke-linecap="square" d="M50.1363954 63.8292816h-6.1220989V32.879665L21.3421749 14.1864903h6.1225247L50.1363954 32.109335v31.7199466z"/><path d="M29.1800456 51.5428544l1.335057-.1592185 1.3278175-.1524611 1.3069506-.1385243 1.2928973-.1321893 1.2788441-.1178301 1.2579772-.1114952 1.243924-.1038932 1.2090038-.0899563 1.1953764-.083199 1.1600304-.0692622 1.1323498-.0692621 1.0970038-.0553252 1.0693232-.0561699 1.034403-.042233.9926693-.0405437.9505095-.0354758 1.7817794-.0485679 1.6007909-.0346311 1.3908441-.0206942 1.1808973-.0139369h.9441217l.6988289.007602h.4330951l.1469201.0067573H58.198692l.9713764.0076019.9573232.0130922.9496578.0215389.937308.0206941.9364562.0270292.9224031.0278738.9092015.034631.9074981.0346311.896.042233.8789658.0405437.8751331.048568.8666159.0494126.8525628.0553252.8448973.0553253 1.6633916.1245873 1.6144183.1326117 1.5726844.1452815 1.5305247.1452816 1.4815513.1600631 1.4389658.1668204 1.3916958.1659757 1.3414449.1731554-.5314677.6664369-.5523346.6525-.5787376.6368737-.601308.6187136-.6298403.6030874-.648578.5891505-.6711482.5764806-.6988289.5549417-.7201217.5401602-.7337491.5203107-.7618555.4991942-.7827224.4856796-.7967757.4645631-.8176426.4447136-.8393612.4231747-.8525627.4092379-.866616.3809418-.8883346.3610922-.9074981.3391311-.9155893.3192815-.9364563.2918301-.9496578.2698689-.9581749.2508641-.9781901.2217233-.9854297.2006068-1.0062966.1731554-1.0062965.1461262-1.0271635.125432-1.0280152.0958689-1.0480305.0692622-1.0480304.0430776-1.0625095.0130923-1.0693232-.0130923-1.0556958-.0485679-1.0484563-.0692622-1.0412167-.0979805-1.0275894-.1169855-1.0203498-.1524611-1.0062965-.1731554-.9922434-.2014514-.978616-.2284806-.9641368-.2500194-.9577491-.2770486-.9364563-.2985874-.922403-.3192815-.9087757-.3408204-.8947224-.3661602-.8734297-.3893883-.8598022-.4092379-.8389354-.429932-.8176426-.4502039-.8035893-.4654078-.7835742-.4932816-.7618555-.5063737-.7409886-.527068-.7196958-.5410049-.6920152-.5625436-.677962-.5815486-.6498555-.5971747-.6289886-.6094224-.601308-.6246262-.5732015-.644898-.5519088-.6592573-.5306159-.6736165zm12.9992395 11.2859272l-1.0625095-.1321894-1.0480304-.1469708-1.0412167-.1516165-1.0344031-.1592185-1.0271635-.1731553-1.0135361-.1807573-1.0062966-.1870922-.9926692-.2022962-.9854296-.2006068-.9713765-.2145436-.9645627-.2293253-.9505095-.2284806-.94327-.2432621-.9228289-.2491748-.9228289-.257199-.9015361-.2631116-.8947224-.2707136-.8806692-.2846505-.866616-.2846505-.8525627-.2977427-.8385095-.3061893-.8248822-.3125243-.8176425-.310835-.7967757-.3264611-.7895361-.3332185-.7686692-.3391311-.754616-.3471553-.7409886-.353068-.7269354-.3539126-.7128821-.3678495-.6920152-.3678495-.677962-.3809418.8248822-.2077864.8316958-.2022961.8316958-.1938495.845749-.1862476.8385095-.1816019.8457491-.1723107.8525627-.1668204.8525628-.1668204.8525627-.1592184.8598023-.1524612.8525627-.1461262.8598023-.1385243.8525627-.1326116.8525628-.1313447.8598023-.1245873.845749-.1178301.3215209.4438689.3355742.4430243.3423878.4371116.3564411.431199.3632547.4223301.3704943.4231748.3841217.4100825.3913612.4083932.4054145.4024806.4122281.3961456.4194677.3885437.4335209.3800971.4403346.3678495.4471483.3678495.4543878.3610923.4684411.3539126.4752547.3463107.4820685.3399757.489308.3332185.5033612.3251941.5033612.3125243.5169886.3125243.5242281.2977427.5314677.2909854.5382814.2838058.545095.2787379.5523346.2698689.5591483.2571991.5663878.2483301.565962.2441068.5800152.2360825.5859772.222568zm56.079635-8.3384855l-.6788137.3754515-.6911635.3678495-.7137338.3539126-.71927.3539126-.7409886.345466-.7478023.3471554-.7686692.3332184-.7827224.3256165-.7967757.3192816-.804441.3116796-.8244563.3061893-.8316958.2977427-.8525628.2905632-.8602281.2846504-.8734297.2778932-.8874828.2707136-.8942966.2639563-.9092015.2500195-.9224031.2491747-.9364563.2352379-.9432699.2293252-.9505095.222568-.9649886.2077864-.9781901.2077864-.9854297.1946942-.9922433.1862475-1.0071483.1807573-1.0122586.1668204-1.0288669.1600631-1.0331255.1524612-1.0420684.1385243-1.0480304.1321893.580441-.2217233.5723498-.2293253.5672396-.2424174.5591483-.2432622.5591483-.257199.5446692-.2698689.5382813-.2707136.5314677-.2846505.5314677-.2846505.5165627-.2985874.5106008-.3045.5025095-.3116796.4956958-.3192815.483346-.3256165.4824943-.3332185.4684411-.3463107.468441-.3471553.453962-.353068.4399088-.3610922.4407604-.3754515.4258555-.3737621.4190419-.3817864.412654-.3885437.3986007-.395301.3917871-.4016359.3841217-.4092379.3700684-.4109271.3636806-.4231748.3568669-.4223301.341962-.429932.3283346-.4371117.3219468-.4438689 1.4040456.2077864 1.3359088.2086311 1.2652167.2069417 1.1953764.2086311 1.1246844.2014514 1.0488821.1946942.9705248.1862476.8951483.1807573.8176425.1731553.7409886.1592185.6494297.1461262.5804411.1321893.4824942.1178301.4049886.0967136.3142814.0840437.2308137.0540582zM26.3353307 50.280932l-1.4538707.2145437-1.3840304.2145437-1.3137643.222568-1.2371102.2217233-1.16727.2153883-1.0974296.2153884-1.0203498.2077864-.9505096.2077864-.8738555.1946942-.8035893.1870922-.7269354.1723107-.6498555.1592184-.5732015.1533059-.4965475.1321893-.4190419.1169854-.3423878.0979806-.5519087-.3610922-.5382814-.3678496-.5242282-.3670048-.5101749-.3746068-.4961216-.3746068-.4820685-.3885437-.468441-.3809417-.4471483-.3961457-.4403346-.3961456-.4194677-.3944563-.4054145-.4024806-.3913612-.4092379-.377308-.4100825-.356441-.4155728-.3423879-.4155728-.3283346-.4231748-.3142813-.4231747-.2934145-.4299321-.2725475-.4307767-.2657338-.429932-.2444411-.4371117-.2235741-.4438689-.209521-.4447136-.188654-.4434466-.1746007-.4510485-.1537339-.4506262-.1401064-.4497816-.1188137-.4578058-.0979468-.4645631-.0838935-.4578058-.0626008-.4654078-.0421597-.4645631h21.2812776l.0140532.3463107.0208669.3539126.0276807.346733.0349201.346733.0421597.346733.0417338.3403981.0489734.3463106.0557871.3399758.0626008.3399757.0698403.3399757.0698403.3327961.0770798.3399758.0838936.3332184.0907072.3332185.0907072.3323738.0979468.3264611.1047604.3315291.112.3264612.112.3192816.1188137.3256165.1256274.3192815.1256274.3256165.1396806.3125243.1396806.3192816.1401064.3116796.1464943.3125242.1537339.310835.1605475.3125243.1677871.3045.1677871.3061893.167787.2985874.182692.3070339zm57.685962-.1461262l-1.3550722-.1731553-1.3422966-.1672427-1.3342053-.1592185-1.3210038-.1376796-1.3073765-.1321893-1.2860836-.1186748-1.2660684-.1106505-1.2426464-.1038932-1.2158175-.0899563-1.1962282-.0840437-1.1596045-.0692621-1.131924-.0692621-1.0978555-.0553253-1.0629353-.0485679-1.0263118-.0413884-.9790419-.0413883-.9432699-.0278738-.8942966-.0270291-.8525627-.0223835-.7967757-.0198496-1.447057-.0206941-1.2234829-.007602-.9773384-.0076019-.7269354.0076019h-.4484258l-.1464943.007602-1.0693232-.007602-1.05527-.0076019-1.0416426.0076019-1.0271635.007602-1.0203498.0139369-1.0062966.0139369-.9926692.0206941-.9850038.0206942-.9718023.0346311-.9573232.0278738-.9505095.0413883-.9296425.0346311-.9224031.0485679-.9155893.0477233-.8947225.0494127-.8874829.0544805-.8738555.0553253-.8598023.0633495-.8525627.0625049-.8389354.0616601-1.6352851.1452816-1.5863118.1469709-1.5377643.1592184-1.4815513.1668204-1.4398175.1668204-1.3840304.1799126-.1818403-.2918301-.1746008-.2905631-.1746007-.2985874-.1677871-.2977427-.1677871-.2985874-.1605475-.3053446-.1537338-.3053447-.1469202-.3053446-.1469202-.3053447-.1396806-.3116796-.1328669-.3125243-.1328669-.3125243-.1188137-.3108349-.1188137-.3201262-.112-.3192816-.112-.3184369-.1047604-.3256165-.0975209-.3192815-.0907073-.3256165-.0838935-.3264612-.0838935-.3332184-.0698403-.3256165-.0698404-.3327962-.0630266-.3327961-.0626007-.3332184-.0489734-.3399758-.0489734-.3323737-.0417338-.3403981-.0349202-.3399757-.0281065-.3403981-.0276806-.3463107-.0140532-.3399757h62.5926692l-.0140532.3463107-.0272548.3471553-.0281064.346733-.0349202.3399758-.0417338.3399757-.0489734.346733-.0557871.3327961-.0566388.3399757-.0698403.3399758-.0698403.3327961-.076654.3327961-.0838935.3336408-.0838935.3332184-.097521.3251942-.0979467.3264612-.1047605.3251941-.1124258.3273059-.1115742.3184369-.1188137.3264611-.1332927.310835-.1256274.3192815-.1405323.3125243-.1388289.3184369-.1464943.3061893-.1537339.310835-.1605475.3061893-.162251.3053447-.1665095.3045-.1746007.2985873-.1754525.2985874-.1814144.2985874-.1882282.2909854zm26.3357563-10.3415971l-.042585.4717428-.062175.4713203-.083894.4713204-.10476.4654078-.126479.4645631-.139681.4654078-.160547.4573835-.174601.4506262-.203133.4573835-.209521.4510485-.237202.443869-.252958.4438689-.265308.4447136-.286175.4371116-.301079.4299321-.321096.4290873-.335148.4311991-.356015.4231747-.371772.4231748-.38327.4155728-.404988.4092379-.419042.4092378-.433521.4024806-.447574.4024806-.468441.3944563-.482495.3885437-.496547.3885437-.509749.3817864-.523803.3817864-.5391326.3678495-.5582966.3746068-.5663878.3598253-.8525628-.2415729-.866616-.2369271-.8734296-.2284806-.8742814-.2145437-.8874829-.2153884-.8874829-.2022961-.8874829-.2006068-.9015361-.1879369-.9015361-.1862475-.9015361-.1731554-.9083498-.1731553-.9015361-.1600631-.9092016-.1592185-.9083498-.1461262-.9083498-.1461262-.9015361-.1393689.1814144-.2977428.1746008-.3116796.1682129-.3061893.168213-.3108349.1605475-.3061894.1605475-.3184369.1528821-.3125242.147346-.3192816.1396807-.3184369.1405323-.3192815.132441-.3264612.1256274-.3251942.1188137-.3264611.117962-.3251942.1132775-.3332184.1047605-.3332185.1047605-.3323738.0907072-.3332184.0907072-.3399758.0838935-.3332184.0838936-.3403981.0698403-.339131.0698403-.3471554.0621749-.3399757.0566388-.3463107.0481217-.346733.0481216-.346733.0434373-.3539126.0349201-.346733.0272548-.3539126.0208669-.3534903.0140532-.3539127h21.2825548zm-87.2156346-1.6508883H1.8601368l.0421597-.4649854.0626008-.4645632.0770798-.4649854.097521-.4578058.1188136-.4578058.1396806-.4510486.1537339-.4506262.1750266-.4510485.188654-.4510486.2095209-.4438689.2235742-.4371117.244441-.4371116.2584943-.4371117.2793612-.429932.2934145-.4303544.3074677-.4231747.3283346-.4231748.3423878-.4159951.356441-.4159952.377308-.4092378.3841217-.4024806.4054145-.4088156.4262813-.3957233.433521-.3953009.453962-.395301.468441-.3813641.4752547-.3885437.4961217-.3746068.510175-.3746068.524228-.3674272.5382814-.3678495.5519088-.3606699.3355741.097136.4194677.1178301.489308.1317669.5732015.1457039.6498555.1663981.7269354.1735777.7967756.1870922.8734297.1942718.9505095.2010292 1.0275894.214966 1.0974296.214966 1.1740837.2153883 1.2439239.2217233 1.3137643.2221457 1.3840304.2217233 1.4606844.214966-.1750266.2985874-.1746008.3053446-.167787.3053447-.1605476.3053447-.1605475.3121019-.1537338.3053447-.1469202.3121019-.1469201.3188592-.1396807.312102-.1328669.3188592-.1256274.3188592-.1256273.3260388-.1188137.3188593-.112.3260388-.112.3256165-.1047605.3332185-.0975209.3260388-.0907072.3327961-.0907072.3327961-.0770799.3327961-.0838935.3403981-.0698403.3327961-.0630266.3399757-.0626008.3395534-.0557871.3399758-.0489734.346733-.0489733.3399757-.0349202.346733-.0349201.346733-.0276807.346733-.0208669.3534903-.0140532.3488447zm64.2633004 0H24.8120456l.0140532-.3399757.0208669-.346733.0349202-.3399758.0349201-.3399757.0349202-.3399757.0489734-.3327962.055787-.3399757.0557871-.3327961.0626008-.3332184.0698403-.3327962.0770798-.3260388.0770799-.3327961.0907072-.3260388.0907072-.3260389.0975209-.3188592.0979468-.3260388.112-.3188593.1115741-.3192815.1188137-.3188592.1188137-.312102.1328669-.3121019.132867-.312102.1401064-.3125242.1396806-.312102.1537339-.3053446.1537338-.3049224.1605475-.2985873.1605476-.2981651.167787-.298165.1750267-.2985874.1818403-.2914078.1814144-.2909854 1.3840304.1735776 1.4330038.1731554 1.4887909.1668204 1.5373384.1592184.7827224.0764418.8040153.0692621.8108289.0696845.8248821.0696844.8385095.0692622.845749.0625048.866616.0620825.8738555.0557476.8874829.0553253.8947224.0485679.9155894.0481457.922403.0418106.9364563.0418107.9436958.0413884.9641369.0274514.9718023.0278738.9781901.0278738.9994829.0202718 1.0062966.0139369 1.0203498.0139369 1.0271635.0071796h2.0969125l1.0693232-.0071796h.1464943l.4484259.0071796.7269353.0067573.9773384-.0067573 1.2234829-.0071796 1.4470571-.0206941.8035893-.0206942.8457491-.0206942.9015361-.0278738.9356046-.0274514.9862813-.0418107L66.7111178 29.319l1.0620837-.048568 1.0970038-.0620825 1.1310722-.0620825 1.161308-.0764418 1.1953764-.0760194 1.2158175-.0971359 1.2443498-.0971359 1.2652168-.1110728 1.2860836-.1182525 1.3065247-.131767 1.3210038-.1457038 1.3350571-.1524612 1.3491102-.1668204 1.355924-.1799126.1805627.298165.1831179.2914078.1814144.2981651.1673613.3053446.1686387.2981651.1665095.3053446.1545856.312102.1537338.3053446.147346.312102.1396806.3121019.1396807.3192816.132441.3121019.1264791.3188592.117962.3192816.1124258.3260388.1115742.3256165.1039087.3260389.0987985.3260388.0979468.3260388.0830418.3327961.0838935.3332185.0775057.3327961.0698403.3332185.062175.3399757.0621749.3327961.0498251.3403981.0489733.3399757.0417339.346733.0349201.3399757.0281065.346733.0272547.346733.0140533.3458884zm12.7058251-13.6159223l.5663878.3606699.5591483.3678495.538281.3746068.523377.3817864.511452.3813641.495696.3885436.481643.3881214.461627.3957233.454814.4024806.432669.4020582.413506.4092379.404137.4159952.384973.4159951.370068.4159951.356867.4231748.335149.4303544.321946.429932.300228.4371117.287027.4371116.265308.4366893.250403.4442913.23124.4506262.217186.4506262.195468.4506262.173749.4578059.161399.4578058.139681.4649854.125627.4649855.098798.4645631.083894.4717427.062175.4717427.048973.4717427H89.0821596l-.0217186-.3539126-.0208669-.3539126-.0272548-.3534903-.0349201-.346733-.0434373-.3534903-.0408821-.346733-.0489734-.346733-.0630266-.346733-.0621749-.3399758-.0630266-.3471553-.076654-.3399757-.0775057-.3395534-.0830418-.3399758-.091559-.3332184-.0975209-.3399757-.0979468-.3327962-.1047604-.3256165-.1115742-.3332184-.1188137-.3260388-.1196654-.3327962-.1256273-.3192815-.1324411-.3256165-.1396806-.3192816-.1396806-.3192815-.147346-.3188593-.1528821-.3192815-.1537339-.3121019-.1622509-.3116797-.1665095-.3053446-.1746008-.312102-.1754525-.3053446-.1814144-.3053447.9083498-.1389466.9092015-.1385243.9083498-.1524611.9092015-.1524612.9083498-.1668204.9015362-.166398.9083498-.180335.9015361-.1803349.8942966-.1942719.8951483-.1938495.8874829-.2077864.8874828-.2086311.8742814-.2217233.8734297-.2289029.8666159-.2360825.8517111-.2432621zM27.307133 26.1426553l-.8525627-.1178301-.8598023-.1250097-.8525627-.131767-.8598023-.1389466-.8525627-.1385242-.8598023-.1461262-.8525628-.1524612-.8598022-.1592185-.8525628-.1596407-.8525627-.1735777-.8457491-.1735777-.845749-.1803349-.8385095-.1870923-.8385095-.1942718-.8316959-.2010291-.8248821-.2082088.677962-.381364.6988289-.3674272.7128821-.3678495.7196958-.3606699.7478023-.3539127.754616-.346733.7686692-.340398.7895361-.3327962.7967757-.3260388.8176426-.3121019.8248821-.312102.8385095-.3053446.8598023-.2981651.866616-.2842281.8806692-.2842282.8947224-.2707136.9015361-.2702912.9228289-.2567767.9296426-.2500195.9364563-.2356602.9505095-.2360825.9645627-.2217233.978616-.2221456.9854296-.2010291.9926692-.2014515 1.0062966-.1870922 1.0131103-.180335 1.0275893-.1735776 1.0344031-.1663981 1.0484562-.1524612 1.0480305-.1389466 1.0625095-.1385242-.5868289.2289029-.5800152.2360825-.5732016.2428398-.5659619.2495971-.5591483.2567767-.5519088.2702912-.545095.2774709-.5382814.2842282-.5310418.2914077-.5242282.3053447-.5169885.3049223-.5033613.3188593-.5033612.3260388-.489308.3327961-.4829201.3344854-.4752548.3467331-.468441.3606699-.4612016.3606699-.4471482.3678495-.4403346.3746068-.4262814.381364-.4262814.3881214-.4122281.3957233-.4054145.4020583-.3913612.4024805-.3841217.4159952-.3704943.4231747-.3632547.4231748-.3564411.429932-.3423878.4371117-.3283346.4438689-.3219468.4506262zm55.6461141.1178301l-1.3491103.1735777-1.3908441.1663981-1.4330038.166398-1.4887909.1524612-1.5305247.1528835-1.5718327.1457039-1.6152699.131767-1.6561521.1178301-.8457491.0620825-.8593764.0485679-.860654.0553253-.8789658.0489903-.8806692.0413883-.8951483.0413884-.9083498.0350534-.9155893.034631-.9224031.0274515-.9292167.0278738-.9449734.0206942-.9496578.0206941-.9573232.0071796-.9713764.0139369H56.094114l-.433095.0071796-.6988289.0071797-.9441217-.0071797-1.1808974-.0071796-1.3976577-.0206941-1.5939772-.0346311-1.7817795-.048568-.957749-.034631-.9922434-.0418107-1.034403-.0413884-1.0693232-.0553252-1.0974297-.0557476-1.1319239-.0692621-1.1668441-.0764418-1.1881369-.083199-1.2162434-.0903786-1.2371102-.0967136-1.2579772-.1110728-1.2788441-.1178301-1.2997111-.131767-1.3069505-.1389466-1.3278175-.1524612-1.3350571-.1663981.5242282-.6727718.5519087-.658835.5800152-.6381407.6008822-.6313835.6289886-.610267.6498555-.5963301.6779619-.5828155.6920153-.5621214.7196958-.5477621.7405627-.5274903.7618555-.5059515.7827225-.4924369.8040152-.4649854.8176426-.4506262.845749-.4303544.8525627-.4088155.8802434-.3885437.8874829-.3678495.9087756-.346733.9224031-.3192816.9436958-.298165.9505095-.2774709.9713764-.2495971.9781901-.2221456.9994829-.2077864 1.0062966-.1735777 1.0135361-.1520389 1.0344031-.1178301 1.034403-.0971359 1.05527-.0764417L55.0384182 14.268l1.0693232-.0135146 1.0625095.0135146 1.0556958.0418107 1.040365.0692621 1.0356806.0971359 1.019924.1250097 1.013962.1457039.999057.1731554.9922434.2014514.9790418.2221457.9573232.2491747.9505095.2707136.9364563.2985874.922403.3188592.9015361.3399757.8874829.3606699.8734297.3817864.8525627.4092379.8385095.4231748.8176426.4438689.7967757.4649854.7827224.4852573.7618555.4996165.7346008.527068.7192699.5342476.6996806.5621213.6694449.5688787.6511331.5963301.6289886.6035097.6004562.6242038.5804411.6313835.5523346.6516554.5314677.6715048zM70.0370494 15.0792961l1.0480304.1385243 1.0480304.1389466 1.0356806.1524612 1.0203498.1592184 1.019924.1663981 1.0054449.1803349.993095.1870922.9854297.1942719.9790418.2082087.9632852.214966.9573232.2153884.9449733.2356602.9356046.2360825.922403.2428398.9092016.2563544.9006844.2639563.8815209.263534.8806692.2774709.8593764.2842281.8457491.2985874.8385095.298165.825308.3053447.8035893.3121019.7967757.3188593.7827224.3327961.7686692.3332184.7550418.3399758.7337491.346733.7269353.3534903.7060685.3606699.6920152.3674271.677962.3746068-.2095209.0557476-.3078936.0764418-.3994524.0967136-.4816426.1114951-.5663879.131767-.6562433.1524612-.7346008.1596407-.8176426.1663981-.9015361.1875145-.9713764.1870923-1.0548441.2010291-1.1263878.2010291-1.2017643.2082088-1.2784183.2077864-1.3422965.2082087-1.4180989.2082088-.3219468-.4371117-.3291863-.4371116-.3411102-.4371117-.356867-.4227524-.3641064-.4231748-.3692167-.4088155-.3841217-.4092379-.3917871-.4024806-.3994525-.3953009-.4118022-.3885437-.4190419-.3881214-.4258555-.3746068-.4407604-.3678495-.4484259-.3674272-.4531103-.3539126-.4607756-.346733-.4756806-.346733-.4756806-.3327961-.4880305-.3256165-.4965475-.3260389-.5042129-.3121019-.5088974-.3049223-.5238022-.2914078-.524654-.2909854-.530616-.2846505-.5455209-.2707136-.5446692-.2707136-.5523346-.2563544-.5655361-.2428398-.5672396-.2428398-.5723498-.2289029-.5817186-.2297476z" fill="#1586C8"/><path fill="#1F1A17" d="M61.7626768 64.5898981h7.2812775V33.314665L93.030692 13.5466602h-8.1696122l-23.098403 18.2628204v32.7804175z"/><path fill="#C32827" d="M62.363133 63.8829175h6.1225247V32.933301l22.6721217-18.6931748h-6.121673L62.363133 32.1629709v31.7199466z"/><path stroke="#C32827" stroke-width=".5" stroke-linecap="square" d="M62.363133 63.8829175h6.1225247V32.933301l22.6721217-18.6931748h-6.121673L62.363133 32.1629709v31.7199466z"/><path fill="#1F1A17" d="M50.4540836 64.5898981h-7.2821293V33.314665L19.1856425 13.5466602h8.1700381l23.098403 18.2628204v32.7804175z"/><path fill="#FFF" d="M49.8532015 63.8829175h-6.1220989V32.933301L21.0589809 14.2401262h6.1220989l22.6721217 17.9228447v31.7199466z"/><path stroke="#FFF" stroke-width=".5" stroke-linecap="square" d="M49.8532015 63.8829175h-6.1220989V32.933301L21.0589809 14.2401262h6.1220989l22.6721217 17.9228447v31.7199466z"/><path fill="#1F1A17" d="M59.7424182 64.5898981v-29.805102h-7.2685019v29.805102h7.2685019z"/><path fill="#18488B" d="M59.1900836 63.8829175V35.3954854h-6.1638327v28.4874321h6.1638327z"/><path stroke="#18488B" stroke-width=".5" stroke-linecap="square" d="M59.1900836 63.8829175V35.3954854h-6.1638327v28.4874321h6.1638327z"/><path fill="#1F1A17" d="M29.1800456.0274515l26.6555741 21.2461602V0h.5106008v21.2736117L83.0362889 0v.7559709l-26.9494144 21.398199L29.1800456.7141602V.0274515z"/><path fill="#1F1A17" d="M29.1800456 1.8586748l26.9068289 21.4400097L83.0362889 1.8240437v.7559709L56.0868745 23.9853932 29.1800456 2.5386262v-.6799514z"/><path fill="#1F1A17" d="M29.1800456 3.6831408l26.9068289 21.446767L83.0362889 3.655267v.7559709l-26.9494144 21.398199L29.1800456 4.3630922v-.6799514z"/><path fill="#1F1A17" d="M29.1800456 7.9904854l26.9068289 21.4818204L83.0362889 7.9558544v3.7730971L56.0868745 33.0511311 29.1800456 11.7289515v-3.738466z"/><path d="M29.1800456 51.5428544l1.335057-.1592185 1.3278175-.1524611 1.3069506-.1385243 1.2928973-.1321893 1.2788441-.1178301 1.2579772-.1114952 1.243924-.1038932 1.2090038-.0899563 1.1953764-.083199 1.1600304-.0692622 1.1323498-.0692621 1.0970038-.0553252 1.0693232-.0561699 1.034403-.042233.9926693-.0405437.9505095-.0354758 1.7817794-.0485679 1.6007909-.0346311 1.3908441-.0206942 1.1808973-.0139369h.9441217l.6988289.007602h.4330951l.1469201.0067573H58.198692l.9713764.0076019.9573232.0130922.9496578.0215389.937308.0206941.9364562.0270292.9224031.0278738.9092015.034631.9074981.0346311.896.042233.8789658.0405437.8751331.048568.8666159.0494126.8525628.0553252.8448973.0553253 1.6633916.1245873 1.6144183.1326117 1.5726844.1452815 1.5305247.1452816 1.4815513.1600631 1.4389658.1668204 1.3916958.1659757 1.3414449.1731554-.5314677.6664369-.5523346.6525-.5787376.6368737-.601308.6187136-.6298403.6030874-.648578.5891505-.6711482.5764806-.6988289.5549417-.7201217.5401602-.7337491.5203107-.7618555.4991942-.7827224.4856796-.7967757.4645631-.8176426.4447136-.8393612.4231747-.8525627.4092379-.866616.3809418-.8883346.3610922-.9074981.3391311-.9155893.3192815-.9364563.2918301-.9496578.2698689-.9581749.2508641-.9781901.2217233-.9854297.2006068-1.0062966.1731554-1.0062965.1461262-1.0271635.125432-1.0280152.0958689-1.0480305.0692622-1.0480304.0430776-1.0625095.0130923-1.0693232-.0130923-1.0556958-.0485679-1.0484563-.0692622-1.0412167-.0979805-1.0275894-.1169855-1.0203498-.1524611-1.0062965-.1731554-.9922434-.2014514-.978616-.2284806-.9641368-.2500194-.9577491-.2770486-.9364563-.2985874-.922403-.3192815-.9087757-.3408204-.8947224-.3661602-.8734297-.3893883-.8598022-.4092379-.8389354-.429932-.8176426-.4502039-.8035893-.4654078-.7835742-.4932816-.7618555-.5063737-.7409886-.527068-.7196958-.5410049-.6920152-.5625436-.677962-.5815486-.6498555-.5971747-.6289886-.6094224-.601308-.6246262-.5732015-.644898-.5519088-.6592573-.5306159-.6736165zm12.9992395 11.2859272l-1.0625095-.1321894-1.0480304-.1469708-1.0412167-.1516165-1.0344031-.1592185-1.0271635-.1731553-1.0135361-.1807573-1.0062966-.1870922-.9926692-.2022962-.9854296-.2006068-.9713765-.2145436-.9645627-.2293253-.9505095-.2284806-.94327-.2432621-.9228289-.2491748-.9228289-.257199-.9015361-.2631116-.8947224-.2707136-.8806692-.2846505-.866616-.2846505-.8525627-.2977427-.8385095-.3061893-.8248822-.3125243-.8176425-.310835-.7967757-.3264611-.7895361-.3332185-.7686692-.3391311-.754616-.3471553-.7409886-.353068-.7269354-.3539126-.7128821-.3678495-.6920152-.3678495-.677962-.3809418.8248822-.2077864.8316958-.2022961.8316958-.1938495.845749-.1862476.8385095-.1816019.8457491-.1723107.8525627-.1668204.8525628-.1668204.8525627-.1592184.8598023-.1524612.8525627-.1461262.8598023-.1385243.8525627-.1326116.8525628-.1313447.8598023-.1245873.845749-.1178301.3215209.4438689.3355742.4430243.3423878.4371116.3564411.431199.3632547.4223301.3704943.4231748.3841217.4100825.3913612.4083932.4054145.4024806.4122281.3961456.4194677.3885437.4335209.3800971.4403346.3678495.4471483.3678495.4543878.3610923.4684411.3539126.4752547.3463107.4820685.3399757.489308.3332185.5033612.3251941.5033612.3125243.5169886.3125243.5242281.2977427.5314677.2909854.5382814.2838058.545095.2787379.5523346.2698689.5591483.2571991.5663878.2483301.565962.2441068.5800152.2360825.5859772.222568zm56.079635-8.3384855l-.6788137.3754515-.6911635.3678495-.7137338.3539126-.71927.3539126-.7409886.345466-.7478023.3471554-.7686692.3332184-.7827224.3256165-.7967757.3192816-.804441.3116796-.8244563.3061893-.8316958.2977427-.8525628.2905632-.8602281.2846504-.8734297.2778932-.8874828.2707136-.8942966.2639563-.9092015.2500195-.9224031.2491747-.9364563.2352379-.9432699.2293252-.9505095.222568-.9649886.2077864-.9781901.2077864-.9854297.1946942-.9922433.1862475-1.0071483.1807573-1.0122586.1668204-1.0288669.1600631-1.0331255.1524612-1.0420684.1385243-1.0480304.1321893.580441-.2217233.5723498-.2293253.5672396-.2424174.5591483-.2432622.5591483-.257199.5446692-.2698689.5382813-.2707136.5314677-.2846505.5314677-.2846505.5165627-.2985874.5106008-.3045.5025095-.3116796.4956958-.3192815.483346-.3256165.4824943-.3332185.4684411-.3463107.468441-.3471553.453962-.353068.4399088-.3610922.4407604-.3754515.4258555-.3737621.4190419-.3817864.412654-.3885437.3986007-.395301.3917871-.4016359.3841217-.4092379.3700684-.4109271.3636806-.4231748.3568669-.4223301.341962-.429932.3283346-.4371117.3219468-.4438689 1.4040456.2077864 1.3359088.2086311 1.2652167.2069417 1.1953764.2086311 1.1246844.2014514 1.0488821.1946942.9705248.1862476.8951483.1807573.8176425.1731553.7409886.1592185.6494297.1461262.5804411.1321893.4824942.1178301.4049886.0967136.3142814.0840437.2308137.0540582zM26.3353307 50.280932l-1.4538707.2145437-1.3840304.2145437-1.3137643.222568-1.2371102.2217233-1.16727.2153883-1.0974296.2153884-1.0203498.2077864-.9505096.2077864-.8738555.1946942-.8035893.1870922-.7269354.1723107-.6498555.1592184-.5732015.1533059-.4965475.1321893-.4190419.1169854-.3423878.0979806-.5519087-.3610922-.5382814-.3678496-.5242282-.3670048-.5101749-.3746068-.4961216-.3746068-.4820685-.3885437-.468441-.3809417-.4471483-.3961457-.4403346-.3961456-.4194677-.3944563-.4054145-.4024806-.3913612-.4092379-.377308-.4100825-.356441-.4155728-.3423879-.4155728-.3283346-.4231748-.3142813-.4231747-.2934145-.4299321-.2725475-.4307767-.2657338-.429932-.2444411-.4371117-.2235741-.4438689-.209521-.4447136-.188654-.4434466-.1746007-.4510485-.1537339-.4506262-.1401064-.4497816-.1188137-.4578058-.0979468-.4645631-.0838935-.4578058-.0626008-.4654078-.0421597-.4645631h21.2812776l.0140532.3463107.0208669.3539126.0276807.346733.0349201.346733.0421597.346733.0417338.3403981.0489734.3463106.0557871.3399758.0626008.3399757.0698403.3399757.0698403.3327961.0770798.3399758.0838936.3332184.0907072.3332185.0907072.3323738.0979468.3264611.1047604.3315291.112.3264612.112.3192816.1188137.3256165.1256274.3192815.1256274.3256165.1396806.3125243.1396806.3192816.1401064.3116796.1464943.3125242.1537339.310835.1605475.3125243.1677871.3045.1677871.3061893.167787.2985874.182692.3070339zm57.685962-.1461262l-1.3550722-.1731553-1.3422966-.1672427-1.3342053-.1592185-1.3210038-.1376796-1.3073765-.1321893-1.2860836-.1186748-1.2660684-.1106505-1.2426464-.1038932-1.2158175-.0899563-1.1962282-.0840437-1.1596045-.0692621-1.131924-.0692621-1.0978555-.0553253-1.0629353-.0485679-1.0263118-.0413884-.9790419-.0413883-.9432699-.0278738-.8942966-.0270291-.8525627-.0223835-.7967757-.0198496-1.447057-.0206941-1.2234829-.007602-.9773384-.0076019-.7269354.0076019h-.4484258l-.1464943.007602-1.0693232-.007602-1.05527-.0076019-1.0416426.0076019-1.0271635.007602-1.0203498.0139369-1.0062966.0139369-.9926692.0206941-.9850038.0206942-.9718023.0346311-.9573232.0278738-.9505095.0413883-.9296425.0346311-.9224031.0485679-.9155893.0477233-.8947225.0494127-.8874829.0544805-.8738555.0553253-.8598023.0633495-.8525627.0625049-.8389354.0616601-1.6352851.1452816-1.5863118.1469709-1.5377643.1592184-1.4815513.1668204-1.4398175.1668204-1.3840304.1799126-.1818403-.2918301-.1746008-.2905631-.1746007-.2985874-.1677871-.2977427-.1677871-.2985874-.1605475-.3053446-.1537338-.3053447-.1469202-.3053446-.1469202-.3053447-.1396806-.3116796-.1328669-.3125243-.1328669-.3125243-.1188137-.3108349-.1188137-.3201262-.112-.3192816-.112-.3184369-.1047604-.3256165-.0975209-.3192815-.0907073-.3256165-.0838935-.3264612-.0838935-.3332184-.0698403-.3256165-.0698404-.3327962-.0630266-.3327961-.0626007-.3332184-.0489734-.3399758-.0489734-.3323737-.0417338-.3403981-.0349202-.3399757-.0281065-.3403981-.0276806-.3463107-.0140532-.3399757h62.5926692l-.0140532.3463107-.0272548.3471553-.0281064.346733-.0349202.3399758-.0417338.3399757-.0489734.346733-.0557871.3327961-.0566388.3399757-.0698403.3399758-.0698403.3327961-.076654.3327961-.0838935.3336408-.0838935.3332184-.097521.3251942-.0979467.3264612-.1047605.3251941-.1124258.3273059-.1115742.3184369-.1188137.3264611-.1332927.310835-.1256274.3192815-.1405323.3125243-.1388289.3184369-.1464943.3061893-.1537339.310835-.1605475.3061893-.162251.3053447-.1665095.3045-.1746007.2985873-.1754525.2985874-.1814144.2985874-.1882282.2909854zm26.3357563-10.3415971l-.042585.4717428-.062175.4713203-.083894.4713204-.10476.4654078-.126479.4645631-.139681.4654078-.160547.4573835-.174601.4506262-.203133.4573835-.209521.4510485-.237202.443869-.252958.4438689-.265308.4447136-.286175.4371116-.301079.4299321-.321096.4290873-.335148.4311991-.356015.4231747-.371772.4231748-.38327.4155728-.404988.4092379-.419042.4092378-.433521.4024806-.447574.4024806-.468441.3944563-.482495.3885437-.496547.3885437-.509749.3817864-.523803.3817864-.5391326.3678495-.5582966.3746068-.5663878.3598253-.8525628-.2415729-.866616-.2369271-.8734296-.2284806-.8742814-.2145437-.8874829-.2153884-.8874829-.2022961-.8874829-.2006068-.9015361-.1879369-.9015361-.1862475-.9015361-.1731554-.9083498-.1731553-.9015361-.1600631-.9092016-.1592185-.9083498-.1461262-.9083498-.1461262-.9015361-.1393689.1814144-.2977428.1746008-.3116796.1682129-.3061893.168213-.3108349.1605475-.3061894.1605475-.3184369.1528821-.3125242.147346-.3192816.1396807-.3184369.1405323-.3192815.132441-.3264612.1256274-.3251942.1188137-.3264611.117962-.3251942.1132775-.3332184.1047605-.3332185.1047605-.3323738.0907072-.3332184.0907072-.3399758.0838935-.3332184.0838936-.3403981.0698403-.339131.0698403-.3471554.0621749-.3399757.0566388-.3463107.0481217-.346733.0481216-.346733.0434373-.3539126.0349201-.346733.0272548-.3539126.0208669-.3534903.0140532-.3539127h21.2825548zm-87.2156346-1.6508883H1.8601368l.0421597-.4649854.0626008-.4645632.0770798-.4649854.097521-.4578058.1188136-.4578058.1396806-.4510486.1537339-.4506262.1750266-.4510485.188654-.4510486.2095209-.4438689.2235742-.4371117.244441-.4371116.2584943-.4371117.2793612-.429932.2934145-.4303544.3074677-.4231747.3283346-.4231748.3423878-.4159951.356441-.4159952.377308-.4092378.3841217-.4024806.4054145-.4088156.4262813-.3957233.433521-.3953009.453962-.395301.468441-.3813641.4752547-.3885437.4961217-.3746068.510175-.3746068.524228-.3674272.5382814-.3678495.5519088-.3606699.3355741.097136.4194677.1178301.489308.1317669.5732015.1457039.6498555.1663981.7269354.1735777.7967756.1870922.8734297.1942718.9505095.2010292 1.0275894.214966 1.0974296.214966 1.1740837.2153883 1.2439239.2217233 1.3137643.2221457 1.3840304.2217233 1.4606844.214966-.1750266.2985874-.1746008.3053446-.167787.3053447-.1605476.3053447-.1605475.3121019-.1537338.3053447-.1469202.3121019-.1469201.3188592-.1396807.312102-.1328669.3188592-.1256274.3188592-.1256273.3260388-.1188137.3188593-.112.3260388-.112.3256165-.1047605.3332185-.0975209.3260388-.0907072.3327961-.0907072.3327961-.0770799.3327961-.0838935.3403981-.0698403.3327961-.0630266.3399757-.0626008.3395534-.0557871.3399758-.0489734.346733-.0489733.3399757-.0349202.346733-.0349201.346733-.0276807.346733-.0208669.3534903-.0140532.3488447zm64.2633004 0H24.8120456l.0140532-.3399757.0208669-.346733.0349202-.3399758.0349201-.3399757.0349202-.3399757.0489734-.3327962.055787-.3399757.0557871-.3327961.0626008-.3332184.0698403-.3327962.0770798-.3260388.0770799-.3327961.0907072-.3260388.0907072-.3260389.0975209-.3188592.0979468-.3260388.112-.3188593.1115741-.3192815.1188137-.3188592.1188137-.312102.1328669-.3121019.132867-.312102.1401064-.3125242.1396806-.312102.1537339-.3053446.1537338-.3049224.1605475-.2985873.1605476-.2981651.167787-.298165.1750267-.2985874.1818403-.2914078.1814144-.2909854 1.3840304.1735776 1.4330038.1731554 1.4887909.1668204 1.5373384.1592184.7827224.0764418.8040153.0692621.8108289.0696845.8248821.0696844.8385095.0692622.845749.0625048.866616.0620825.8738555.0557476.8874829.0553253.8947224.0485679.9155894.0481457.922403.0418106.9364563.0418107.9436958.0413884.9641369.0274514.9718023.0278738.9781901.0278738.9994829.0202718 1.0062966.0139369 1.0203498.0139369 1.0271635.0071796h2.0969125l1.0693232-.0071796h.1464943l.4484259.0071796.7269353.0067573.9773384-.0067573 1.2234829-.0071796 1.4470571-.0206941.8035893-.0206942.8457491-.0206942.9015361-.0278738.9356046-.0274514.9862813-.0418107L66.7111178 29.319l1.0620837-.048568 1.0970038-.0620825 1.1310722-.0620825 1.161308-.0764418 1.1953764-.0760194 1.2158175-.0971359 1.2443498-.0971359 1.2652168-.1110728 1.2860836-.1182525 1.3065247-.131767 1.3210038-.1457038 1.3350571-.1524612 1.3491102-.1668204 1.355924-.1799126.1805627.298165.1831179.2914078.1814144.2981651.1673613.3053446.1686387.2981651.1665095.3053446.1545856.312102.1537338.3053446.147346.312102.1396806.3121019.1396807.3192816.132441.3121019.1264791.3188592.117962.3192816.1124258.3260388.1115742.3256165.1039087.3260389.0987985.3260388.0979468.3260388.0830418.3327961.0838935.3332185.0775057.3327961.0698403.3332185.062175.3399757.0621749.3327961.0498251.3403981.0489733.3399757.0417339.346733.0349201.3399757.0281065.346733.0272547.346733.0140533.3458884zm12.7058251-13.6159223l.5663878.3606699.5591483.3678495.538281.3746068.523377.3817864.511452.3813641.495696.3885436.481643.3881214.461627.3957233.454814.4024806.432669.4020582.413506.4092379.404137.4159952.384973.4159951.370068.4159951.356867.4231748.335149.4303544.321946.429932.300228.4371117.287027.4371116.265308.4366893.250403.4442913.23124.4506262.217186.4506262.195468.4506262.173749.4578059.161399.4578058.139681.4649854.125627.4649855.098798.4645631.083894.4717427.062175.4717427.048973.4717427H89.0821596l-.0217186-.3539126-.0208669-.3539126-.0272548-.3534903-.0349201-.346733-.0434373-.3534903-.0408821-.346733-.0489734-.346733-.0630266-.346733-.0621749-.3399758-.0630266-.3471553-.076654-.3399757-.0775057-.3395534-.0830418-.3399758-.091559-.3332184-.0975209-.3399757-.0979468-.3327962-.1047604-.3256165-.1115742-.3332184-.1188137-.3260388-.1196654-.3327962-.1256273-.3192815-.1324411-.3256165-.1396806-.3192816-.1396806-.3192815-.147346-.3188593-.1528821-.3192815-.1537339-.3121019-.1622509-.3116797-.1665095-.3053446-.1746008-.312102-.1754525-.3053446-.1814144-.3053447.9083498-.1389466.9092015-.1385243.9083498-.1524611.9092015-.1524612.9083498-.1668204.9015362-.166398.9083498-.180335.9015361-.1803349.8942966-.1942719.8951483-.1938495.8874829-.2077864.8874828-.2086311.8742814-.2217233.8734297-.2289029.8666159-.2360825.8517111-.2432621zM27.307133 26.1426553l-.8525627-.1178301-.8598023-.1250097-.8525627-.131767-.8598023-.1389466-.8525627-.1385242-.8598023-.1461262-.8525628-.1524612-.8598022-.1592185-.8525628-.1596407-.8525627-.1735777-.8457491-.1735777-.845749-.1803349-.8385095-.1870923-.8385095-.1942718-.8316959-.2010291-.8248821-.2082088.677962-.381364.6988289-.3674272.7128821-.3678495.7196958-.3606699.7478023-.3539127.754616-.346733.7686692-.340398.7895361-.3327962.7967757-.3260388.8176426-.3121019.8248821-.312102.8385095-.3053446.8598023-.2981651.866616-.2842281.8806692-.2842282.8947224-.2707136.9015361-.2702912.9228289-.2567767.9296426-.2500195.9364563-.2356602.9505095-.2360825.9645627-.2217233.978616-.2221456.9854296-.2010291.9926692-.2014515 1.0062966-.1870922 1.0131103-.180335 1.0275893-.1735776 1.0344031-.1663981 1.0484562-.1524612 1.0480305-.1389466 1.0625095-.1385242-.5868289.2289029-.5800152.2360825-.5732016.2428398-.5659619.2495971-.5591483.2567767-.5519088.2702912-.545095.2774709-.5382814.2842282-.5310418.2914077-.5242282.3053447-.5169885.3049223-.5033613.3188593-.5033612.3260388-.489308.3327961-.4829201.3344854-.4752548.3467331-.468441.3606699-.4612016.3606699-.4471482.3678495-.4403346.3746068-.4262814.381364-.4262814.3881214-.4122281.3957233-.4054145.4020583-.3913612.4024805-.3841217.4159952-.3704943.4231747-.3632547.4231748-.3564411.429932-.3423878.4371117-.3283346.4438689-.3219468.4506262zm55.6461141.1178301l-1.3491103.1735777-1.3908441.1663981-1.4330038.166398-1.4887909.1524612-1.5305247.1528835-1.5718327.1457039-1.6152699.131767-1.6561521.1178301-.8457491.0620825-.8593764.0485679-.860654.0553253-.8789658.0489903-.8806692.0413883-.8951483.0413884-.9083498.0350534-.9155893.034631-.9224031.0274515-.9292167.0278738-.9449734.0206942-.9496578.0206941-.9573232.0071796-.9713764.0139369H56.094114l-.433095.0071796-.6988289.0071797-.9441217-.0071797-1.1808974-.0071796-1.3976577-.0206941-1.5939772-.0346311-1.7817795-.048568-.957749-.034631-.9922434-.0418107-1.034403-.0413884-1.0693232-.0553252-1.0974297-.0557476-1.1319239-.0692621-1.1668441-.0764418-1.1881369-.083199-1.2162434-.0903786-1.2371102-.0967136-1.2579772-.1110728-1.2788441-.1178301-1.2997111-.131767-1.3069505-.1389466-1.3278175-.1524612-1.3350571-.1663981.5242282-.6727718.5519087-.658835.5800152-.6381407.6008822-.6313835.6289886-.610267.6498555-.5963301.6779619-.5828155.6920153-.5621214.7196958-.5477621.7405627-.5274903.7618555-.5059515.7827225-.4924369.8040152-.4649854.8176426-.4506262.845749-.4303544.8525627-.4088155.8802434-.3885437.8874829-.3678495.9087756-.346733.9224031-.3192816.9436958-.298165.9505095-.2774709.9713764-.2495971.9781901-.2221456.9994829-.2077864 1.0062966-.1735777 1.0135361-.1520389 1.0344031-.1178301 1.034403-.0971359 1.05527-.0764417L55.0384182 14.268l1.0693232-.0135146 1.0625095.0135146 1.0556958.0418107 1.040365.0692621 1.0356806.0971359 1.019924.1250097 1.013962.1457039.999057.1731554.9922434.2014514.9790418.2221457.9573232.2491747.9505095.2707136.9364563.2985874.922403.3188592.9015361.3399757.8874829.3606699.8734297.3817864.8525627.4092379.8385095.4231748.8176426.4438689.7967757.4649854.7827224.4852573.7618555.4996165.7346008.527068.7192699.5342476.6996806.5621213.6694449.5688787.6511331.5963301.6289886.6035097.6004562.6242038.5804411.6313835.5523346.6516554.5314677.6715048zM70.0370494 15.0792961l1.0480304.1385243 1.0480304.1389466 1.0356806.1524612 1.0203498.1592184 1.019924.1663981 1.0054449.1803349.993095.1870922.9854297.1942719.9790418.2082087.9632852.214966.9573232.2153884.9449733.2356602.9356046.2360825.922403.2428398.9092016.2563544.9006844.2639563.8815209.263534.8806692.2774709.8593764.2842281.8457491.2985874.8385095.298165.825308.3053447.8035893.3121019.7967757.3188593.7827224.3327961.7686692.3332184.7550418.3399758.7337491.346733.7269353.3534903.7060685.3606699.6920152.3674271.677962.3746068-.2095209.0557476-.3078936.0764418-.3994524.0967136-.4816426.1114951-.5663879.131767-.6562433.1524612-.7346008.1596407-.8176426.1663981-.9015361.1875145-.9713764.1870923-1.0548441.2010291-1.1263878.2010291-1.2017643.2082088-1.2784183.2077864-1.3422965.2082087-1.4180989.2082088-.3219468-.4371117-.3291863-.4371116-.3411102-.4371117-.356867-.4227524-.3641064-.4231748-.3692167-.4088155-.3841217-.4092379-.3917871-.4024806-.3994525-.3953009-.4118022-.3885437-.4190419-.3881214-.4258555-.3746068-.4407604-.3678495-.4484259-.3674272-.4531103-.3539126-.4607756-.346733-.4756806-.346733-.4756806-.3327961-.4880305-.3256165-.4965475-.3260389-.5042129-.3121019-.5088974-.3049223-.5238022-.2914078-.524654-.2909854-.530616-.2846505-.5455209-.2707136-.5446692-.2707136-.5523346-.2563544-.5655361-.2428398-.5672396-.2428398-.5723498-.2289029-.5817186-.2297476z" fill="#1586C8"/><path fill="#1F1A17" d="M61.7626768 64.5898981h7.2812775V33.314665L93.030692 13.5466602h-8.1696122l-23.098403 18.2628204v32.7804175z"/><path fill="#C32827" d="M62.363133 63.8829175h6.1225247V32.933301l22.6721217-18.6931748h-6.121673L62.363133 32.1629709v31.7199466z"/><path stroke="#C32827" stroke-width=".5" stroke-linecap="square" d="M62.363133 63.8829175h6.1225247V32.933301l22.6721217-18.6931748h-6.121673L62.363133 32.1629709v31.7199466z"/><path fill="#1F1A17" d="M50.4540836 64.5898981h-7.2821293V33.314665L19.1856425 13.5466602h8.1700381l23.098403 18.2628204v32.7804175z"/><path fill="#FFF" d="M49.8532015 63.8829175h-6.1220989V32.933301L21.0589809 14.2401262h6.1220989l22.6721217 17.9228447v31.7199466z"/><path stroke="#FFF" stroke-width=".5" stroke-linecap="square" d="M49.8532015 63.8829175h-6.1220989V32.933301L21.0589809 14.2401262h6.1220989l22.6721217 17.9228447v31.7199466z"/><path fill="#1F1A17" d="M59.7424182 64.5898981v-29.805102h-7.2685019v29.805102h7.2685019z"/><path fill="#18488B" d="M59.1900836 63.8829175V35.3954854h-6.1638327v28.4874321h6.1638327z"/><path stroke="#18488B" stroke-width=".5" stroke-linecap="square" d="M59.1900836 63.8829175V35.3954854h-6.1638327v28.4874321h6.1638327z"/><path fill="#1F1A17" d="M29.1800456.0274515l26.6555741 21.2461602V0h.5106008v21.2736117L83.0362889 0v.7559709l-26.9494144 21.398199L29.1800456.7141602V.0274515z"/><path fill="#1F1A17" d="M29.1800456 1.8586748l26.9068289 21.4400097L83.0362889 1.8240437v.7559709L56.0868745 23.9853932 29.1800456 2.5386262v-.6799514z"/><path fill="#1F1A17" d="M29.1800456 3.6831408l26.9068289 21.446767L83.0362889 3.655267v.7559709l-26.9494144 21.398199L29.1800456 4.3630922v-.6799514z"/><path fill="#1F1A17" d="M29.1800456 7.9904854l26.9068289 21.4818204L83.0362889 7.9558544v3.7730971L56.0868745 33.0511311 29.1800456 11.7289515v-3.738466z"/></g></svg>