<svg width="365" height="449" xmlns="http://www.w3.org/2000/svg"><g fill-rule="nonzero" fill="none"><path d="M8 .464c0 .422 44.753 36.937 92.5 75.471 10.45 8.434 19.693 15.932 20.539 16.664 1.327 1.146 4.226-.819 21-14.226 10.704-8.556 19.569-15.66 19.7-15.787.132-.128-12.726-10.619-28.573-23.315C117.32 26.574 99.997 12.545 94.673 8.093L84.991 0H46.496C25.323 0 8 .209 8 .464" fill="#DFDFE2"/><path d="M80 157.273v31.423c0 22.718.307 31.233 1.107 30.738C83.07 218.221 266.188 70.708 307.25 37.261 339.893 10.673 347 4.447 347 2.442V0h-71.838l-97.581 78.637L80 157.273z" fill="#29B6DA"/><path d="M277.91 84.279c-37.175 29.822-69.012 55.429-70.75 56.906l-3.16 2.686V246h48v-76.576l4.25-3.521c2.337-1.937 23.712-19.178 47.5-38.314L347 92.797V61.399c0-17.27-.337-31.386-.75-31.37-.413.016-31.166 24.429-68.34 54.25" fill="#EE284D"/><path d="M155.784 182.274L132.5 201.548l-.269 22.226-.269 22.226H180v-41.5c0-22.825-.21-41.5-.466-41.5s-10.944 8.673-23.75 19.274" fill="#DFDFE2"/><path d="M173.974 272.953c-9.803 1.306-21.245 6.661-29.489 13.801-4.852 4.202-11.519 13.754-14.622 20.949-3.286 7.618-3.363 8.118-3.363 21.797 0 13.874.032 14.073 3.568 22.084 7.134 16.162 18.667 26.648 35.79 32.539 8.495 2.923 25.975 2.647 35.137-.554 7.699-2.69 16.607-8.19 22.033-13.605 4.496-4.486 8.972-10.334 8.972-11.723 0-1.02-5.672-4.841-14.637-9.862l-4.138-2.318-2.573 3.889c-3.196 4.829-7.549 8.198-15.003 11.61-5.064 2.319-6.765 2.595-13.958 2.27-13.973-.633-24.36-7.35-30.409-19.665-2.417-4.922-2.782-6.846-2.782-14.665 0-7.819.365-9.743 2.782-14.665 6.076-12.37 16.426-19.032 30.56-19.671 7.93-.358 8.704-.198 15.652 3.236 6.745 3.333 10.615 6.634 14.826 12.647l1.64 2.341 8.77-5.881c4.823-3.235 8.958-6.023 9.188-6.196 1.912-1.436-11.27-15.832-18.497-20.201-11.564-6.992-25.918-9.96-39.447-8.157M0 329.5V386h24v-45h50v45h24V273H74v45H24v-45H0v56.5M289.844 275.392c5.457-1.927 8.689-2.354 17.938-2.371 13.073-.024 19.635 1.709 30.338 8.014 20.034 11.802 31.149 38.752 25.365 61.505-5.034 19.804-19.017 34.949-38.203 41.377-8.84 2.961-25.739 2.943-34.528-.038-17.939-6.084-30.489-18.329-36.772-35.879-1.925-5.378-2.337-8.572-2.388-18.5-.053-10.313.277-12.914 2.349-18.5 6.541-17.636 18.451-29.449 35.901-35.608zm33.006 22.311c-13.888-6.353-29.69-3.287-40.296 7.817-6.721 7.037-9.554 14.147-9.554 23.98 0 9.829 2.833 16.944 9.546 23.972 7.4 7.748 14.597 10.802 25.454 10.802 7.14 0 9.436-.434 14.353-2.713 7.533-3.492 13.997-10.007 17.703-17.842 2.493-5.269 2.942-7.441 2.942-14.219s-.449-8.95-2.942-14.219c-3.638-7.691-10.162-14.356-17.206-17.578zM334.5 405.877c4.576-1.204 14.07-.137 18.387 2.065 11.564 5.9 14.709 21.883 6.457 32.817-8.63 11.435-31.628 10.48-38.686-1.606-7.721-13.219-1.001-29.374 13.842-33.276zm14.308 7.147c-3.456-2.106-10.511-2.624-14.39-1.055-3.171 1.283-7.239 6.654-8.453 11.16-1.883 6.993 1.093 14.721 7.011 18.204 4.034 2.375 11.13 2.364 15.289-.023 3.891-2.232 7.744-9.361 7.713-14.272-.032-5.205-3.346-11.683-7.17-14.014zM5.988 406.695c-.006.443-.68 8.005-1.496 16.805-.816 8.8-1.486 17.913-1.488 20.25C3 447.91 3.071 448 6.371 448h3.372l.667-11.25c1.317-22.195.916-21.969 7.994-4.498 5.944 14.671 6.293 15.259 9.217 15.549 2.987.295 3.128.096 8.175-11.5 2.825-6.491 5.982-13.826 7.016-16.301l1.881-4.5.675 11c.372 6.05.943 13.363 1.269 16.25.586 5.182.637 5.25 3.978 5.25 4.052 0 3.928 1.512 1.885-23-.802-9.625-1.468-17.837-1.479-18.25-.012-.413-2.065-.75-4.563-.75h-4.542l-3.063 6.75c-1.685 3.712-4.731 10.856-6.769 15.874l-3.705 9.123-6.48-15.623L15.42 406.5l-4.71-.305c-2.59-.167-4.715.058-4.722.5M92 427v21h8v-37h20v-5H92v21M154 427v21h3.893c3.747 0 4.173-.365 11.361-9.75 4.107-5.363 9.331-12.412 11.607-15.666l4.139-5.916V448h7v-42l-3.75.014c-3.671.013-3.994.34-15.25 15.451l-11.5 15.437-.275-15.451-.276-15.451H154v21M233.656 410.2c-.322 2.365-1.065 10.6-1.65 18.3-.585 7.7-1.264 15.238-1.51 16.75-.422 2.602-.238 2.75 3.409 2.75h3.854l.668-12.75c1.08-20.647.894-20.574 7.919-3.076 5.956 14.834 6.253 15.336 9.234 15.627 3.362.328 3.106.789 13.911-25.08l3.249-7.78.684 13.28c1.001 19.435 1.091 19.779 5.187 19.779 2.569 0 3.384-.423 3.368-1.75-.012-.962-.674-9.85-1.472-19.75-.798-9.9-1.463-18.562-1.479-19.25-.018-.813-1.619-1.25-4.574-1.25h-4.546l-3.896 8.475c-2.144 4.661-5.132 11.636-6.641 15.5-1.509 3.864-3.039 7.025-3.399 7.025-.361 0-1.166-1.687-1.789-3.75-.624-2.062-3.321-8.925-5.994-15.25l-4.86-11.5-4.543-.3-4.544-.3-.586 4.3" fill="#000"/></g></svg>