<svg width="191" height="169" xmlns="http://www.w3.org/2000/svg"><path d="M28.65613 68.95528c-10.99599 1.59193-20.34502 5.31223-25.0272 9.9671-1.50602 1.51761-2.38425 3.00229-2.68747 4.45926-.04698.16827-.16247.61618-.14675 1.18707.00225.58099.10969.99764.13514 1.08561.30697 1.53933 1.1968 3.02363 2.70899 4.53582 4.66477 4.64905 14.0138 8.37308 25.01932 9.9592 8.897 1.28083 19.34924 1.00717 33.82069.62589 2.45462-.0644 5.03651-.13103 7.75523-.18962l9.55622 17.73578-.08011-.00187c-1.14027.006-2.25135.47131-3.01802 1.2537-.82544.80972-1.28308 1.92847-1.28103 3.06481l-.00393 4.93263c-.00393 1.14233.4539 2.25714 1.26736 3.0706.82151.82152 1.90507 1.2713 3.05713 1.2655l7.37564-.00207 1.36919 2.53492c-.9546.11342-1.85416.54767-2.50347 1.2127-.83724.82152-1.2889 1.9148-1.28515 3.06481v4.95228c-.00187 1.13241.45577 2.23956 1.2771 3.06088.81757.81758 1.90132 1.26343 3.04533 1.2537l6.76526.00186 9.71869 18.03115c.219.4028.49882.78033.8509 1.1324.99745.97388 2.2766 1.52155 3.60461 1.52735l9.75782-.00188c1.10714.00019 2.16712-.43799 2.87108-1.15393 1.0639-1.02872 1.45117-2.57385 1.02086-3.9977l-12.87744-45.47775c-.0627-.22293-.17014-.94093-.17014-1.24603l-.00186-16.63463c15.97746-.41648 30.84816-1.42387 43.15605-2.92801 1.14626-.13702 2.24929-.28545 3.33883-.43612l20.52281 24.62232c.09584.12316.20926.25643.36574.4129 1.05623 1.01318 2.47633 1.61533 3.95277 1.64078l4.54742.00206c1.11107.0116 2.17104-.4146 2.881-1.14028 1.11294-1.07775 1.46296-2.75372.91136-4.19328l-8.3377-23.42142c-.06832-.20533-.17202-.81365-.1722-1.04443l-.00974-2.62682c1.57452-.74908 2.79097-1.547 3.68698-2.41943 1.18707-1.1792 1.81878-2.57385 1.81879-4.03307l-.00768-.10575-.00393-.02714c-.0234-1.47475-.62385-2.81455-1.82477-4.01547-.87822-.8509-2.08101-1.64302-3.6574-2.39808l-.00187-2.67361c.0058-.2132.10557-.80972.17988-1.01318l8.31845-23.3707c.55142-1.47083.21507-3.1174-.86456-4.19703l-.01553-.01554c-.7472-.7472-1.76038-1.1618-2.85349-1.15992l-4.66665.00786c-1.41785.03725-2.82803.6336-3.90167 1.67616-.12896.12896-.22311.23472-.27402.29349l-20.59921 24.71032c-1.08356-.15255-2.18864-.29929-3.33265-.44192-12.32586-1.506-27.20442-2.50925-43.15437-2.92177l.00788-16.65635c-.006-.26392.09209-.99165.17201-1.25576L123.58862 5.6419c.44398-1.4375.06851-2.97496-.99165-4.03512-.75694-.75693-1.77592-1.17733-2.88287-1.17358l-9.8224-.00355c-1.30442.029-2.56804.57687-3.56737 1.55673-.33242.33243-.60832.70191-.82544 1.09124l-9.72264 18.03508-6.769.006c-1.13466-.00375-2.24367.45951-3.05134 1.26717-.81177.81178-1.2595 1.88954-1.26755 3.04347l.00206 4.95809c-.00206 1.13634.45783 2.24535 1.26549 3.05301.6845.6845 1.58219 1.12436 2.51731 1.23405l-1.3632 2.52518H79.7286c-1.13635.00206-2.24555.4655-3.05527 1.27523-.81552.81552-1.26511 1.89515-1.26324 3.04328v4.93694c-.00787 1.14626.45558 2.26294 1.26735 3.07472.81553.81552 1.93633 1.27522 3.06294 1.26343l.04885.00206-9.55624 17.73205c-2.75784-.06663-5.37867-.12503-7.8666-.19952-14.42185-.37809-24.83478-.65173-33.71025.62743z" fill="#000" fill-rule="evenodd" fill-opacity=".07456"/></svg>