<svg xmlns="http://www.w3.org/2000/svg" viewBox="0 0 512 512"><circle cx="256" cy="256" r="256" fill="#f0f0f0"/><path d="M500.87 256l8.959-33.391c-1.488-11.381-3.72-22.529-6.647-33.391H233.739V.974c-11.36.978-22.505 2.707-33.391 5.121l-44.522 27.296-22.261-2.247c-11.715 6.392-22.876 13.672-33.391 21.751v136.322H8.819c-2.927 10.862-5.159 22.01-6.647 33.391L11.13 256l-8.959 33.391c1.488 11.381 3.72 22.529 6.647 33.391h91.355v136.322c10.515 8.08 21.677 15.359 33.391 21.751l33.391-2.247 33.391 27.296c10.887 2.413 22.032 4.142 33.391 5.121V322.783h269.442c2.927-10.862 5.159-22.01 6.647-33.391L500.87 256z" fill="#0052b4"/><path d="M509.833 222.609H200.348V6.085c-23.658 5.246-46.087 13.749-66.783 25.042v191.481H2.167C.744 233.539 0 244.683 0 256s.744 22.461 2.167 33.391h131.398v191.481c20.696 11.292 43.125 19.797 66.783 25.042V289.392h309.485C511.256 278.461 512 267.317 512 256s-.744-22.461-2.167-33.391z" fill="#d80027"/></svg>