<svg width="191" height="169" xmlns="http://www.w3.org/2000/svg"><path d="M162.44647 100.14732c10.99598-1.59193 20.34501-5.31223 25.0272-9.9671 1.50602-1.51762 2.38424-3.00229 2.68747-4.45926.04698-.16827.16247-.61618.14675-1.18707-.00225-.58099-.10969-.99764-.13514-1.08561-.30697-1.53933-1.1968-3.02363-2.70899-4.53582-4.66478-4.64905-14.0138-8.37308-25.01933-9.9592-8.897-1.28083-19.34923-1.00718-33.82068-.62589-2.45462.06439-5.03651.13103-7.75523.18961L111.3123 50.7812l.08011.00188c1.14027-.006 2.25134-.47131 3.01801-1.2537.82545-.80973 1.2831-1.92847 1.28103-3.06481l.00394-4.93263c.00393-1.14233-.4539-2.25715-1.26736-3.0706-.82151-.82152-1.90507-1.2713-3.05714-1.2655l-7.37563.00207-1.36919-2.53492c.9546-.11343 1.85416-.54767 2.50347-1.2127.83724-.82152 1.28889-1.91481 1.28515-3.06482V25.4332c.00187-1.1324-.45577-2.23955-1.2771-3.06087-.81757-.81758-1.90132-1.26343-3.04533-1.2537l-6.76526-.00187L85.6083 3.08561c-.219-.4028-.49882-.78033-.8509-1.1324C83.75996.97932 82.48081.43165 81.1528.42585l-9.75781.00187c-1.10714-.00018-2.16712.438-2.87108 1.15394-1.0639 1.02872-1.45118 2.57385-1.02086 3.99769l12.87744 45.47776c.0627.22293.17014.94093.17014 1.24603l.00186 16.63463c-15.97747.41648-30.84816 1.42386-43.15605 2.92801-1.14627.13701-2.24929.28544-3.33884.43612L13.5348 47.6796c-.09584-.12316-.20927-.25643-.36574-.4129-1.05623-1.01319-2.47633-1.61533-3.95277-1.64078l-4.54742-.00206c-1.11107-.0116-2.17105.4146-2.881 1.14027C.6749 47.84188.3249 49.51785.8765 50.95741l8.3377 23.42141c.06832.20534.17202.81365.1722 1.04444l.00973 2.62682c-1.57451.74908-2.79097 1.547-3.68697 2.41943-1.18707 1.1792-1.81879 2.57385-1.81879 4.03306l.00768.10576.00393.02714c.0234 1.47475.62385 2.81455 1.82476 4.01547.87823.8509 2.08102 1.64302 3.6574 2.39808l.00188 2.67361c-.0058.2132-.10557.80972-.17988 1.01318l-8.31846 23.3707c-.55141 1.47083-.21506 3.1174.86456 4.19703l.01554.01554c.7472.7472 1.76038 1.1618 2.85348 1.15992l4.66666-.00786c1.41785-.03725 2.82803-.6336 3.90167-1.67616.12896-.12896.2231-.23472.27402-.2935l20.5992-24.71031c1.08357.15254 2.18865.29929 3.33266.44192 12.32586 1.506 27.20442 2.50925 43.15437 2.92177l-.00788 16.65635c.006.26391-.09209.99165-.17201 1.25576L67.51398 163.4607c-.44398 1.4375-.06851 2.97497.99165 4.03513.75693.75693 1.77592 1.17733 2.88287 1.17358l9.8224.00355c1.30442-.02901 2.56804-.57687 3.56737-1.55674.33242-.33242.60831-.7019.82544-1.09123l9.72264-18.03508 6.769-.006c1.13466.00374 2.24367-.45952 3.05133-1.26718.81178-.81178 1.2595-1.88953 1.26756-3.04347l-.00206-4.95808c.00206-1.13634-.45783-2.24535-1.26549-3.05301-.6845-.6845-1.58219-1.12436-2.51732-1.23405l1.3632-2.52518h7.38144c1.13634-.00206 2.24554-.46551 3.05526-1.27523.81553-.81552 1.26512-1.89515 1.26325-3.04328v-4.93694c.00787-1.14626-.45558-2.26294-1.26736-3.07472-.81552-.81552-1.93632-1.27523-3.06293-1.26343l-.04885-.00206 9.55624-17.73205c2.75784.06663 5.37867.12503 7.8666.19952 14.42185.37809 24.83478.65173 33.71025-.62743z" fill="#000" fill-rule="evenodd" fill-opacity=".07456"/></svg>